# 3D Model: House
# Generated by Python 3D Modeler
# Materials: {'walls': 'brick', 'roof': 'wood', 'windows': 'glass'}

v 0.0000 0.0000 0.0000
v 8.0000 0.0000 0.0000
v 8.0000 8.0000 0.0000
v 0.0000 8.0000 0.0000
v 0.0000 0.0000 8.0000
v 8.0000 0.0000 8.0000
v 8.0000 8.0000 8.0000
v 0.0000 8.0000 8.0000
v -1.0000 -1.0000 8.0000
v 9.0000 -1.0000 8.0000
v 9.0000 9.0000 8.0000
v -1.0000 9.0000 8.0000
v 4.0000 4.0000 12.0000

f 1 2 3 4
f 5 6 7 8
f 1 2 6 5
f 2 3 7 6
f 3 4 8 7
f 4 1 5 8
f 9 10 13
f 10 11 13
f 11 12 13
f 12 9 13
